# xmcd
#
# Track frame offsets:
#	150
#	13234
#	22489
#	33028
#	44873
#	56627
#	76664
#	89645
#	100247
#	108950
#	120255
#	143866
#	161248
#	171362
#	182062
#	195726
#	205213
#	220149
#
# Disc length: 3086 seconds
#
# Revision: 2
# Processed by: cddbd v1.5.2PL0 Copyright (c) Steve Scherf et al.
# Submitted via: EasyCDDAExtractor 15.2.5.1
#
DISCID=040c0c12
DTITLE=Amália Rodrigues - The art of Amália Rodrigues Vol. II
DYEAR=2004
DGENRE=Country
TTITLE0=Madrugada de Alfama
TTITLE1=É ou não é?
TTITLE2=Oiça lá ó senhor vinho
TTITLE3=Meia-noite e uma guitarra
TTITLE4=Alfama
TTITLE5=Cansaço
TTITLE6=Fria claridade
TTITLE7=Anda o sol na minha rua
TTITLE8=Grão de arroz
TTITLE9=Amália
TTITLE10=Abandono (fado Peniche)
TTITLE11=Eu queria cantar-te um fado
TTITLE12=À janela do meu peito
TTITLE13=Fadinho serrano
TTITLE14=Fadinho da Ti Maria Benta
TTITLE15=Solidão (canção do mar)
TTITLE16=Meu amor, meu amor (meu limão de amargura)
TTITLE17=Amêndoa amarga
EXTD=
EXTT0=
EXTT1=
EXTT2=
EXTT3=
EXTT4=
EXTT5=
EXTT6=
EXTT7=
EXTT8=
EXTT9=
EXTT10=
EXTT11=
EXTT12=
EXTT13=
EXTT14=
EXTT15=
EXTT16=
EXTT17=
PLAYORDER=
